<svg height="88" width="68"
     style="fill:none;stroke:black;stroke-width:2;stroke-linecap:round;stroke-linejoin:round;stroke-miterlimit:4" >
  <defs>
    <linearGradient
	id="LG1"
	gradientUnits="userSpaceOnUse"
	x1="4" y1="4" x2="64" y2="84">
      <stop style="stop-color:#cccccc;stop-opacity:1;" offset="0" />
      <stop style="stop-color:#ffffff;stop-opacity:1;" offset="1" />
    </linearGradient>
  </defs>

  <path style="fill:url(#LG1);stroke:#707070;stroke-width:1"
	d="m8,4 h52 a4,4 0 0 1 4,4 v72 a4,4 0 0 1 -4,4
	   h-42 a4,4 0 0 1 -4,-4 v-42 a4,4 0 0 0 -4,-4
	   h-2 a4,4 0 0 1 -4,-4 v-22 a4,4 0 0 1 4,-4" />
  <path d="m50,40 v10 h-20" />
  <path	style="fill:black;" d="m26,50 4,-4 0,8 z" />
  <text x="20" y="36" style="font-size:11px;fill:black;stroke:none;font-family:DejaVu
	    Sans Narrow;font-stretch:ultra-condensed;">
    Entr&#233;e
  </text>
</svg>
